<svg width="33" height="32" viewBox="0 0 33 32" fill="none" xmlns="http://www.w3.org/2000/svg">
<g clip-path="url(#clip0_1128_6434)">
<path d="M13.8051 0V1.52H10.7551V3.05H13.8051V4.57H15.3251V3.05H18.3751V4.57H19.8951V3.05H22.9451V4.57H24.4751V3.05H25.9951V6.1H27.5151V4.57H29.0451V30.48H12.2851V32H30.5651V30.48H32.0851V4.57H30.5651V3.05H29.0451V1.52H24.4751V0H22.9451V1.52H19.8951V0H18.3751V1.52H15.3251V0H13.8051Z" fill="#000001"/>
<path d="M25.9951 6.10001H24.4751V9.14001H25.9951V6.10001Z" fill="#000001"/>
<path d="M22.9451 12.19H27.5151V10.67H24.4751V9.14001H22.9451V12.19Z" fill="#000001"/>
<path d="M21.4251 15.24H19.8951V18.29H21.4251V16.76H27.5151V15.24H22.9451V12.19H21.4251V15.24Z" fill="#000001"/>
<path d="M18.3751 21.33H27.5151V19.81H19.8951V18.29H18.3751V21.33Z" fill="#000001"/>
<path d="M18.3751 12.19H16.8551V13.72H18.3751V12.19Z" fill="#000001"/>
<path d="M18.3751 9.14001H16.8551V10.67H18.3751V9.14001Z" fill="#000001"/>
<path d="M27.5151 24.38H13.8051V25.91H27.5151V24.38Z" fill="#000001"/>
<path d="M16.8552 13.72H12.2852V15.24H16.8552V13.72Z" fill="#000001"/>
<path d="M13.8052 9.14001H12.2852V10.67H13.8052V9.14001Z" fill="#000001"/>
<path d="M12.2851 22.86H18.3751V21.33H3.13513V22.86H10.7551V30.48H12.2851V22.86Z" fill="#000001"/>
<path d="M12.2851 12.19H10.7551V13.72H12.2851V12.19Z" fill="#000001"/>
<path d="M10.7551 3.04999H9.23511V6.09999H10.7551V3.04999Z" fill="#000001"/>
<path d="M9.23508 6.10001H7.70508V9.14001H9.23508V6.10001Z" fill="#000001"/>
<path d="M7.70506 9.14001H6.18506V12.19H7.70506V9.14001Z" fill="#000001"/>
<path d="M6.18516 12.19H4.66516V15.24H6.18516V12.19Z" fill="#000001"/>
<path d="M4.66513 15.24H3.13513V18.29H4.66513V15.24Z" fill="#000001"/>
<path d="M3.13511 18.29H1.61511V21.33H3.13511V18.29Z" fill="#000001"/>
</g>
<defs>
<clipPath id="clip0_1128_6434">
<rect width="32" height="32" fill="white" transform="translate(0.850098)"/>
</clipPath>
</defs>
</svg>
